<svg width="28" height="15" viewBox="0 0 28 15" fill="none" xmlns="http://www.w3.org/2000/svg">
<path d="M11.2974 0C9.23214 0 7.17943 0.867396 5.71908 2.35695C4.79899 3.29541 4.12173 4.47364 3.74614 5.74375C2.84337 5.91758 1.99076 6.367 1.34064 7.0301C0.493281 7.89439 0 9.10882 0 10.3311C0 11.5534 0.493281 12.7683 1.34064 13.6326C2.18801 14.4969 3.37903 15 4.57739 15H25.0783C25.8432 15 26.6035 14.679 27.1444 14.1273C27.6853 13.5756 28 12.8001 28 12.0199C28 11.2397 27.6853 10.4645 27.1444 9.91284C26.6068 9.36453 25.8525 9.04445 25.0923 9.04051C24.944 7.62693 24.3161 6.26632 23.3298 5.26026C22.1939 4.10173 20.5976 3.42715 18.9913 3.42715C18.6013 3.42715 18.2122 3.46794 17.8298 3.54473C17.55 3.11884 17.2314 2.71972 16.8757 2.35695C15.4153 0.867396 13.3627 0 11.2974 0Z" fill="#0E1624"/>
</svg>
